<svg width="50" height="50" viewBox="0 0 50 50" fill="none" xmlns="http://www.w3.org/2000/svg">
<circle cx="25" cy="25" r="25" fill="#F0F2F4"/>
<path d="M31.7695 15.7891H26.2852V31H24.0469V15.7891H18.5742V13.9375H31.7695V15.7891Z" fill="#44EAFF"/>
<path d="M31.5312 29.5859C31.3203 31.3906 30.6523 32.7852 29.5273 33.7695C28.4102 34.7461 26.9219 35.2344 25.0625 35.2344C23.0469 35.2344 21.4297 34.5117 20.2109 33.0664C19 31.6211 18.3945 29.6875 18.3945 27.2656V25.625C18.3945 24.0391 18.6758 22.6445 19.2383 21.4414C19.8086 20.2383 20.6133 19.3164 21.6523 18.6758C22.6914 18.0273 23.8945 17.7031 25.2617 17.7031C27.0742 17.7031 28.5273 18.2109 29.6211 19.2266C30.7148 20.2344 31.3516 21.6328 31.5312 23.4219H29.2695C29.0742 22.0625 28.6484 21.0781 27.9922 20.4688C27.3438 19.8594 26.4336 19.5547 25.2617 19.5547C23.8242 19.5547 22.6953 20.0859 21.875 21.1484C21.0625 22.2109 20.6562 23.7227 20.6562 25.6836V27.3359C20.6562 29.1875 21.043 30.6602 21.8164 31.7539C22.5898 32.8477 23.6719 33.3945 25.0625 33.3945C26.3125 33.3945 27.2695 33.1133 27.9336 32.5508C28.6055 31.9805 29.0508 30.9922 29.2695 29.5859H31.5312Z" fill="#091F2C"/>
</svg>
