<svg width="97" height="67" viewBox="0 0 97 67" fill="none" xmlns="http://www.w3.org/2000/svg">
<path d="M48.5 4.03539C54.502 4.01353 60.4766 4.84493 66.2437 6.50454C71.6014 8.07077 76.3955 10.3003 80.4947 13.1301C88.5313 18.6788 92.9564 25.9147 92.9564 33.4987C92.9564 41.0827 88.5313 48.3187 80.4947 53.8699C76.3955 56.6997 71.6014 58.9292 66.2437 60.4929C60.4769 62.1546 54.5022 62.9869 48.5 62.9646C42.4986 62.9871 36.5247 62.1548 30.7589 60.4929C25.3986 58.9292 20.6045 56.7098 16.5053 53.8699C8.46873 48.3212 4.04356 41.0827 4.04356 33.4987C4.04356 25.9147 8.46873 18.6813 16.5053 13.1301C20.6045 10.3003 25.3986 8.07077 30.7589 6.50454C36.5251 4.84479 42.4988 4.01339 48.5 4.03539V4.03539ZM48.5 0C21.7139 0 0 14.999 0 33.4987C0 51.9985 21.7139 67 48.5 67C75.2861 67 97 52.001 97 33.4987C97 14.9965 75.2861 0 48.5 0Z" fill="#2D9CDB"/>
<path d="M25.4391 20.9462L18.0015 13.5085L61.3687 13.5059L53.9209 20.9563H45.4699L45.4598 29.2868L35.5404 39.113L35.5025 20.9563H25.4644" fill="#2D9CDB"/>
<path d="M56.3195 19.9676H78.976L71.5485 27.4129L49.0511 27.4179L49.0385 46.0715L77.7781 46.0765L70.2748 53.5042L46.5593 53.5092L38.9751 46.0841L39.0054 37.3425L56.3195 19.9676Z" fill="#2D9CDB"/>
</svg>
